<mxfile host="app.diagrams.net" modified="2023-10-01T02:19:31.657Z" agent="Mozilla/5.0 (Windows NT 10.0; Win64; x64) AppleWebKit/537.36 (KHTML, like Gecko) Chrome/117.0.0.0 Safari/537.36" etag="6Vx4q7LTucrG8T8tIq9q" version="22.0.0" type="device">
  <diagram name="Page-1" id="emGrFAK74xSpOxhGaps9">
    <mxGraphModel dx="2924" dy="1118" grid="1" gridSize="10" guides="1" tooltips="1" connect="1" arrows="1" fold="1" page="1" pageScale="1" pageWidth="850" pageHeight="1100" math="0" shadow="0">
      <root>
        <mxCell id="0" />
        <mxCell id="1" parent="0" />
        <mxCell id="A0v2Tc4YB8yKUhHs1QR0-1" value="Note: Applying for a tumblr API token would be super annoying" style="rounded=0;whiteSpace=wrap;html=1;" vertex="1" parent="1">
          <mxGeometry x="-60" y="90" width="210" height="200" as="geometry" />
        </mxCell>
        <mxCell id="A0v2Tc4YB8yKUhHs1QR0-6" value="" style="group" vertex="1" connectable="0" parent="1">
          <mxGeometry x="-430" y="500" width="265" height="120" as="geometry" />
        </mxCell>
        <mxCell id="A0v2Tc4YB8yKUhHs1QR0-2" value="&lt;h3&gt;&amp;nbsp;(Selenium Infinite scroll + getting every single little square thingy that appears in /archive)&lt;/h3&gt;" style="rounded=0;whiteSpace=wrap;html=1;" vertex="1" parent="A0v2Tc4YB8yKUhHs1QR0-6">
          <mxGeometry y="15" width="265" height="90" as="geometry" />
        </mxCell>
        <mxCell id="A0v2Tc4YB8yKUhHs1QR0-4" value="&lt;h1&gt;Get All Posts&lt;/h1&gt;" style="text;html=1;strokeColor=none;fillColor=none;spacing=5;spacingTop=-20;whiteSpace=wrap;overflow=hidden;rounded=0;" vertex="1" parent="A0v2Tc4YB8yKUhHs1QR0-6">
          <mxGeometry x="50" width="190" height="120" as="geometry" />
        </mxCell>
        <mxCell id="A0v2Tc4YB8yKUhHs1QR0-7" value="&lt;h4&gt;&lt;font style=&quot;font-size: 15px;&quot;&gt;Image Post ignore if you can&#39;t find images LOL&lt;/font&gt;&lt;/h4&gt;" style="edgeStyle=orthogonalEdgeStyle;rounded=0;orthogonalLoop=1;jettySize=auto;html=1;" edge="1" parent="1" source="A0v2Tc4YB8yKUhHs1QR0-4" target="A0v2Tc4YB8yKUhHs1QR0-3">
          <mxGeometry relative="1" as="geometry">
            <mxPoint as="offset" />
          </mxGeometry>
        </mxCell>
        <mxCell id="A0v2Tc4YB8yKUhHs1QR0-9" value="" style="group" vertex="1" connectable="0" parent="1">
          <mxGeometry x="250" y="480" width="270" height="220" as="geometry" />
        </mxCell>
        <mxCell id="A0v2Tc4YB8yKUhHs1QR0-3" value="" style="rounded=0;whiteSpace=wrap;html=1;" vertex="1" parent="A0v2Tc4YB8yKUhHs1QR0-9">
          <mxGeometry width="270" height="160" as="geometry" />
        </mxCell>
        <mxCell id="A0v2Tc4YB8yKUhHs1QR0-8" value="&lt;h1&gt;Parse Single Post&lt;/h1&gt;&lt;p&gt;Take the one tumblr post which has all the relevant images and information, parse it to save the image with beautiful soup&lt;/p&gt;&lt;p&gt;The &lt;b&gt;name&lt;/b&gt;&amp;nbsp;of the saved image should be the post number then another digit in case it&#39;s an image set.&lt;br&gt;&lt;/p&gt;" style="text;html=1;strokeColor=none;fillColor=none;spacing=5;spacingTop=-20;whiteSpace=wrap;overflow=hidden;rounded=0;" vertex="1" parent="A0v2Tc4YB8yKUhHs1QR0-9">
          <mxGeometry width="260" height="220" as="geometry" />
        </mxCell>
        <mxCell id="A0v2Tc4YB8yKUhHs1QR0-16" value="Saved Images Folder" style="ellipse;whiteSpace=wrap;html=1;" vertex="1" parent="1">
          <mxGeometry x="290" y="260" width="180" height="110" as="geometry" />
        </mxCell>
        <mxCell id="A0v2Tc4YB8yKUhHs1QR0-10" style="edgeStyle=orthogonalEdgeStyle;rounded=0;orthogonalLoop=1;jettySize=auto;html=1;entryX=0.5;entryY=1;entryDx=0;entryDy=0;" edge="1" parent="1" source="A0v2Tc4YB8yKUhHs1QR0-8" target="A0v2Tc4YB8yKUhHs1QR0-16">
          <mxGeometry relative="1" as="geometry">
            <mxPoint x="380" y="330" as="targetPoint" />
          </mxGeometry>
        </mxCell>
        <mxCell id="A0v2Tc4YB8yKUhHs1QR0-17" value="Image" style="edgeLabel;html=1;align=center;verticalAlign=middle;resizable=0;points=[];fontSize=20;" vertex="1" connectable="0" parent="A0v2Tc4YB8yKUhHs1QR0-10">
          <mxGeometry x="0.0182" y="3" relative="1" as="geometry">
            <mxPoint as="offset" />
          </mxGeometry>
        </mxCell>
      </root>
    </mxGraphModel>
  </diagram>
</mxfile>
